<svg xmlns="http://www.w3.org/2000/svg" viewBox="0 0 814 1000" fill="#999">
  <path d="M788.1 340.9c-5.8 4.5-108.2 62.2-108.2 190.5 0 148.4 130.3 200.9 134.2 202.2-.6 3.2-20.7 71.9-68.7 141.9-42.8 61.6-87.5 123.1-155.5 123.1s-85.5-39.5-164-39.5c-76.5 0-103.7 40.8-165.9 40.8s-105.6-57.8-155.5-127.4c-58-81.2-104.9-207.3-104.9-327.1 0-192.8 125.3-295 248.6-295 65.5 0 120.1 43.1 161.2 43.1 39.2 0 100.4-45.7 174.6-45.7 28.2 0 129.6 2.6 196.1 99.1zM554.1 159.4c31.1-36.9 53.1-88.1 53.1-139.3 0-7.1-.6-14.3-1.9-20.1-50.6 1.9-110.8 33.7-147.1 75.8-28.2 32.4-55.5 83.6-55.5 135.5 0 7.8.6 15.7 1.3 18.2 2.6.6 6.4 1.3 10.2 1.3 45.4 0 103-30.4 139.9-71.4z"/>
</svg>
